<?xml version="1.0" standalone="no"?>
<!DOCTYPE svg PUBLIC "-//W3C//DTD SVG 20010904//EN"
 "http://www.w3.org/TR/2001/REC-SVG-20010904/DTD/svg10.dtd">
<svg version="1.0" xmlns="http://www.w3.org/2000/svg"
 width="700.000000pt" height="700.000000pt" viewBox="0 0 700.000000 700.000000"
 preserveAspectRatio="xMidYMid meet">
<metadata>
Created by potrace 1.14, written by Peter Selinger 2001-2017
</metadata>
<g transform="translate(0.000000,700.000000) scale(0.100000,-0.100000)"
fill="#000000" stroke="none">
<path d="M1064 6122 c-83 -14 -155 -74 -177 -147 -9 -34 -12 -288 -12 -1119 0
-1012 1 -1076 18 -1093 16 -17 84 -18 1172 -17 1069 0 1156 1 1172 16 15 16
17 104 17 1170 1 1059 0 1154 -16 1172 -16 21 -20 21 -1085 21 -588 0 -1078
-1 -1089 -3z m1747 -441 c1 -3 3 -340 3 -748 2 -665 0 -743 -13 -747 -9 -2
-347 -3 -751 -2 l-735 1 -1 751 -1 752 748 -1 c412 0 750 -2 750 -6z"/>
<path d="M1836 5164 c-14 -13 -16 -48 -16 -228 0 -194 2 -214 18 -229 16 -15
47 -17 229 -17 191 0 211 2 226 18 25 27 25 432 1 456 -13 14 -48 16 -229 16
-181 0 -216 -2 -229 -16z"/>
<path d="M3776 6115 c-11 -5 -22 -21 -25 -35 -4 -14 -6 -537 -6 -1163 1 -1053
3 -1139 18 -1154 16 -16 102 -17 1172 -17 1087 -1 1156 0 1172 17 17 17 18 81
18 1093 0 838 -3 1085 -13 1119 -6 24 -28 60 -48 80 -71 74 13 69 -1188 69
-705 1 -1086 -2 -1100 -9z m1912 -1179 l0 -753 -751 1 -752 1 -1 745 c0 410 1
748 2 751 2 4 341 7 753 7 l749 0 0 -752z"/>
<path d="M4702 5160 c-8 -14 -12 -80 -12 -228 0 -190 2 -210 18 -225 27 -25
432 -25 456 -1 16 16 17 25 17 229 0 204 -1 213 -17 229 -13 14 -48 16 -232
16 -206 0 -218 -1 -230 -20z"/>
<path d="M923 3252 c-50 -7 -48 32 -47 -1123 0 -1198 -4 -1120 65 -1188 68
-69 -10 -65 1188 -66 997 -1 1086 1 1105 16 20 16 20 19 21 1170 0 1050 -1
1155 -16 1173 -16 20 -27 20 -1155 21 -627 0 -1149 -1 -1161 -3z m1892 -1187
l0 -750 -751 -1 -751 -1 -1 746 c0 410 2 749 4 752 2 3 340 5 751 5 l748 -1 0
-750z"/>
<path d="M1836 2291 c-14 -15 -17 -43 -17 -192 0 -250 0 -246 17 -263 23 -24
435 -24 458 0 14 13 16 48 16 228 0 194 -2 214 -18 229 -16 15 -47 17 -229 17
-192 0 -211 -2 -227 -19z"/>
<path d="M3793 3252 c-49 -7 -47 40 -47 -1189 0 -1152 0 -1156 21 -1172 17
-14 47 -17 201 -16 158 0 184 3 199 18 16 16 17 77 18 859 l0 843 263 1 c180
0 263 -3 264 -10 1 -6 2 -168 3 -359 1 -309 3 -349 18 -364 15 -15 76 -17 687
-17 620 0 672 1 688 17 15 16 17 68 17 684 0 597 -1 669 -16 686 -15 19 -29
20 -193 21 -97 1 -185 -2 -196 -6 -11 -4 -22 -18 -26 -32 -3 -14 -7 -229 -7
-478 l-2 -453 -262 -1 c-145 0 -264 2 -264 5 -1 3 -2 214 -3 468 -1 422 -3
464 -19 480 -15 16 -67 17 -669 17 -359 1 -663 0 -675 -2z"/>
<path d="M4833 1312 c-66 -2 -95 -7 -104 -18 -9 -11 -12 -66 -12 -200 0 -160
2 -187 17 -202 14 -14 42 -17 202 -17 177 0 187 1 203 20 14 18 16 49 15 204
0 143 -4 185 -15 196 -15 15 -142 22 -306 17z"/>
<path d="M5748 1312 c-25 -2 -41 -10 -48 -23 -7 -11 -11 -94 -11 -201 0 -174
1 -183 21 -198 18 -13 51 -16 202 -15 169 1 181 2 197 21 24 30 24 376 0 400
-13 12 -45 16 -170 17 -85 1 -171 1 -191 -1z"/>
</g>
</svg>
